<svg xmlns="http://www.w3.org/2000/svg" viewBox="0 0 520 520" width="520" height="520" role="img" aria-label="Eight institutional nodes surround a central aggregator; model updates flow inward while local data stays in place.">
<title>Federated learning: model updates travel, data stays put</title>
<g stroke="#9FB0AC" stroke-width="1" opacity="0.55">
<line x1="260.0" y1="72.8" x2="260" y2="260"/>
<line x1="392.4" y1="127.6" x2="260" y2="260"/>
<line x1="447.2" y1="260.0" x2="260" y2="260"/>
<line x1="392.4" y1="392.4" x2="260" y2="260"/>
<line x1="260.0" y1="447.2" x2="260" y2="260"/>
<line x1="127.6" y1="392.4" x2="260" y2="260"/>
<line x1="72.8" y1="260.0" x2="260" y2="260"/>
<line x1="127.6" y1="127.6" x2="260" y2="260"/>
</g>
<g fill="#9FB0AC">
<circle cx="271.0" cy="72.8" r="1.6"/>
<circle cx="263.4" cy="83.3" r="1.6"/>
<circle cx="251.1" cy="79.3" r="1.6"/>
<circle cx="251.1" cy="66.3" r="1.6"/>
<circle cx="263.4" cy="62.3" r="1.6"/>
<circle cx="403.4" cy="127.6" r="1.6"/>
<circle cx="395.8" cy="138.1" r="1.6"/>
<circle cx="383.5" cy="134.1" r="1.6"/>
<circle cx="383.5" cy="121.2" r="1.6"/>
<circle cx="395.8" cy="117.2" r="1.6"/>
<circle cx="458.2" cy="260.0" r="1.6"/>
<circle cx="450.6" cy="270.5" r="1.6"/>
<circle cx="438.3" cy="266.5" r="1.6"/>
<circle cx="438.3" cy="253.5" r="1.6"/>
<circle cx="450.6" cy="249.5" r="1.6"/>
<circle cx="403.4" cy="392.4" r="1.6"/>
<circle cx="395.8" cy="402.8" r="1.6"/>
<circle cx="383.5" cy="398.8" r="1.6"/>
<circle cx="383.5" cy="385.9" r="1.6"/>
<circle cx="395.8" cy="381.9" r="1.6"/>
<circle cx="271.0" cy="447.2" r="1.6"/>
<circle cx="263.4" cy="457.7" r="1.6"/>
<circle cx="251.1" cy="453.7" r="1.6"/>
<circle cx="251.1" cy="440.7" r="1.6"/>
<circle cx="263.4" cy="436.7" r="1.6"/>
<circle cx="138.6" cy="392.4" r="1.6"/>
<circle cx="131.0" cy="402.8" r="1.6"/>
<circle cx="118.7" cy="398.8" r="1.6"/>
<circle cx="118.7" cy="385.9" r="1.6"/>
<circle cx="131.0" cy="381.9" r="1.6"/>
<circle cx="83.8" cy="260.0" r="1.6"/>
<circle cx="76.2" cy="270.5" r="1.6"/>
<circle cx="63.9" cy="266.5" r="1.6"/>
<circle cx="63.9" cy="253.5" r="1.6"/>
<circle cx="76.2" cy="249.5" r="1.6"/>
<circle cx="138.6" cy="127.6" r="1.6"/>
<circle cx="131.0" cy="138.1" r="1.6"/>
<circle cx="118.7" cy="134.1" r="1.6"/>
<circle cx="118.7" cy="121.2" r="1.6"/>
<circle cx="131.0" cy="117.2" r="1.6"/>
</g>
<g fill="#0C6B5B">
<circle cx="260.0" cy="72.8" r="5.5"/>
<circle cx="392.4" cy="127.6" r="5.5"/>
<circle cx="447.2" cy="260.0" r="5.5"/>
<circle cx="392.4" cy="392.4" r="5.5"/>
<circle cx="260.0" cy="447.2" r="5.5"/>
<circle cx="127.6" cy="392.4" r="5.5"/>
<circle cx="72.8" cy="260.0" r="5.5"/>
<circle cx="127.6" cy="127.6" r="5.5"/>
<circle cx="260.0" cy="166.4" r="3" opacity="0.9"/>
<circle cx="326.2" cy="193.8" r="3" opacity="0.9"/>
<circle cx="353.6" cy="260.0" r="3" opacity="0.9"/>
<circle cx="326.2" cy="326.2" r="3" opacity="0.9"/>
<circle cx="260.0" cy="353.6" r="3" opacity="0.9"/>
<circle cx="193.8" cy="326.2" r="3" opacity="0.9"/>
<circle cx="166.4" cy="260.0" r="3" opacity="0.9"/>
<circle cx="193.8" cy="193.8" r="3" opacity="0.9"/>
</g>
<circle cx="260" cy="260" r="39.0" fill="none" stroke="#0C6B5B" stroke-width="1.25"/>
<circle cx="260" cy="260" r="14.6" fill="#0C6B5B"/>
</svg>
